<?xml version="1.0" encoding="utf-8"?>
<!-- Generator: Adobe Illustrator 16.0.0, SVG Export Plug-In . SVG Version: 6.00 Build 0)  -->
<!DOCTYPE svg PUBLIC "-//W3C//DTD SVG 1.1//EN" "http://www.w3.org/Graphics/SVG/1.1/DTD/svg11.dtd">
<svg version="1.1" id="Layer_1" xmlns="http://www.w3.org/2000/svg" xmlns:xlink="http://www.w3.org/1999/xlink" x="0px" y="0px"
	 width="128px" height="128px" viewBox="0 0 128 128" enable-background="new 0 0 128 128" xml:space="preserve">
<g>
	<line fill="#FFFFFF" stroke="#FFFFFF" stroke-width="0.96" stroke-miterlimit="10" x1="64.01" y1="4.622" x2="22.01" y2="64.619"/>
	
		<line fill="#FFFFFF" stroke="#FFFFFF" stroke-width="1.1999" stroke-miterlimit="10" x1="22.01" y1="64.619" x2="64.01" y2="124.615"/>
	
		<line fill="#FFFFFF" stroke="#FFFFFF" stroke-width="1.4399" stroke-miterlimit="10" x1="64.01" y1="124.497" x2="106.007" y2="64.498"/>
	<g>
		<line fill="#FFFFFF" x1="106.007" y1="64.619" x2="64.01" y2="4.622"/>
		<polygon fill="#FFFFFF" points="104.827,65.445 64.01,4.622 107.187,63.793 		"/>
	</g>
	
		<line fill="#FFFFFF" stroke="#FFFFFF" stroke-width="0.24" stroke-miterlimit="10" x1="64.01" y1="4.622" x2="64.01" y2="124.615"/>
	
		<line fill="#FFFFFF" stroke="#FFFFFF" stroke-width="0.72" stroke-miterlimit="10" x1="76.067" y1="22.201" x2="43.31" y2="33.841"/>
	<g>
		<line fill="#FFFFFF" x1="76.309" y1="22.201" x2="29.702" y2="52.812"/>
		<polygon fill="#FFFFFF" points="76.572,22.603 29.702,52.812 76.045,21.8 		"/>
	</g>
	<g>
		<line fill="#FFFFFF" x1="76.188" y1="22.381" x2="37.742" y2="72.008"/>
		<polygon fill="#FFFFFF" points="76.758,22.822 37.742,72.008 75.619,21.94 		"/>
	</g>
	
		<line fill="#FFFFFF" stroke="#FFFFFF" stroke-width="0.36" stroke-miterlimit="10" x1="37.409" y1="70.339" x2="64.308" y2="124.316"/>
	<g>
		<line fill="#FFFFFF" x1="82.849" y1="59.519" x2="107.687" y2="64.739"/>
		<polygon fill="#FFFFFF" points="83.059,58.521 107.687,64.739 82.639,60.517 		"/>
	</g>
	
		<line fill="#FFFFFF" stroke="#FFFFFF" stroke-width="0.84" stroke-miterlimit="10" x1="37.923" y1="71.648" x2="80.398" y2="100.627"/>
	
		<line fill="#FFFFFF" stroke="#FFFFFF" stroke-width="0.84" stroke-miterlimit="10" x1="81.478" y1="59.411" x2="87.957" y2="90.548"/>
	<g>
		<line fill="#FFFFFF" x1="22.01" y1="64.739" x2="39.77" y2="72.419"/>
		<polygon fill="#FFFFFF" points="22.368,63.913 39.77,72.419 21.653,65.565 		"/>
	</g>
	<g>
		<line fill="#FFFFFF" x1="96.827" y1="51.48" x2="55.561" y2="16.755"/>
		<polygon fill="#FFFFFF" points="96.132,52.307 55.561,16.755 97.522,50.654 		"/>
	</g>
	
		<line fill="#FFFFFF" stroke="#FFFFFF" stroke-width="1.1999" stroke-miterlimit="10" x1="76.129" y1="22.141" x2="81.768" y2="59.46"/>
	<g>
		<line fill="#FFFFFF" x1="38.33" y1="71.7" x2="83.508" y2="59.1"/>
		<polygon fill="#FFFFFF" points="38.007,70.544 83.508,59.1 38.652,72.856 		"/>
	</g>
	
		<line fill="#FFFFFF" stroke="#FFFFFF" stroke-width="0.36" stroke-miterlimit="10" x1="30.723" y1="52.031" x2="37.923" y2="71.468"/>
	<circle fill="#FFFFFF" stroke="#FFFFFF" stroke-width="0.36" stroke-miterlimit="10" cx="81.658" cy="59.589" r="1.8"/>
	<circle fill="#FFFFFF" stroke="#FFFFFF" stroke-width="0.36" stroke-miterlimit="10" cx="55.56" cy="16.755" r="0.6"/>
	<circle fill="#FFFFFF" stroke="#FFFFFF" stroke-width="0.12" stroke-miterlimit="10" cx="80.628" cy="100.679" r="1.2"/>
	<path fill="#FFFFFF" stroke="#FFFFFF" stroke-width="0.36" stroke-miterlimit="10" d="M88.609,90.06
		c0,0.331-0.27,0.598-0.603,0.598c-0.329,0-0.599-0.267-0.599-0.598c0-0.335,0.27-0.602,0.599-0.602
		C88.34,89.458,88.609,89.725,88.609,90.06z"/>
	<circle fill="#FFFFFF" stroke="#FFFFFF" stroke-width="0.36" stroke-miterlimit="10" cx="105.736" cy="63.629" r="2.611"/>
	<circle fill="#FFFFFF" stroke="#FFFFFF" stroke-width="0.36" stroke-miterlimit="10" cx="44.221" cy="33.134" r="0.9"/>
	<circle fill="#FFFFFF" stroke="#FFFFFF" stroke-width="0.36" stroke-miterlimit="10" cx="64.2" cy="5.117" r="2.97"/>
	<circle fill="#FFFFFF" stroke="#FFFFFF" stroke-width="0.36" stroke-miterlimit="10" cx="22.264" cy="64.99" r="2.61"/>
	<circle fill="#FFFFFF" stroke="#FFFFFF" stroke-width="0.36" stroke-miterlimit="10" cx="64.019" cy="123.723" r="2.129"/>
	<circle fill="#FFFFFF" stroke="#FFFFFF" stroke-width="0.36" stroke-miterlimit="10" cx="37.922" cy="71.108" r="2.61"/>
	<circle fill="#FFFFFF" stroke="#FFFFFF" stroke-width="0.36" stroke-miterlimit="10" cx="30.543" cy="51.912" r="0.9"/>
	<circle fill="#FFFFFF" stroke="#FFFFFF" stroke-width="0.36" stroke-miterlimit="10" cx="96.056" cy="50.412" r="2.61"/>
	<path fill="#FFFFFF" stroke="#FFFFFF" stroke-width="0.36" stroke-miterlimit="10" d="M64.739,89.286
		c0,0.499-0.402,0.903-0.899,0.903c-0.498,0-0.9-0.404-0.9-0.903c0-0.496,0.402-0.898,0.9-0.898
		C64.337,88.388,64.739,88.79,64.739,89.286z"/>
	<circle fill="#FFFFFF" stroke="#FFFFFF" stroke-width="0.36" stroke-miterlimit="10" cx="63.889" cy="64.378" r="0.9"/>
	<circle fill="#FFFFFF" stroke="#FFFFFF" stroke-width="0.36" stroke-miterlimit="10" cx="64.009" cy="30.301" r="0.9"/>
	<circle fill="#FFFFFF" stroke="#FFFFFF" stroke-width="0.36" stroke-miterlimit="10" cx="76.049" cy="22.742" r="1.8"/>
</g>
</svg>
